<svg width="1512" height="1314" viewBox="0 0 1512 1314" fill="none" xmlns="http://www.w3.org/2000/svg">
<mask id="mask0_4_14590" style="mask-type:alpha" maskUnits="userSpaceOnUse" x="-3855" y="0" width="9222" height="1314">
<path fill-rule="evenodd" clip-rule="evenodd" d="M1305.82 2.78377L1930.52 2.78376V0.0725098L-419.232 0.0725319V2.78378L284.769 2.78378L191.617 86.8732H-1608.92V89.5844H188.613L94.7327 174.331H-2783.79V177.043H91.7292L-99.0354 349.248H-1608.92V351.959H-102.039L-292.803 524.164H-3855V526.876H-295.807L-486.572 699.081H-2783.79V701.792H-489.575L-777.223 961.456H-2783.79V964.167H-780.227L-1162.33 1309.09L-1161.16 1311.29H-3855V1314H5366.29V1311.29H2751.75L2752.92 1309.09L2370.82 964.167H4295.07V961.456H2367.82L2080.17 701.792H4295.07V699.081H2077.17L1886.4 526.876H5366.29V524.164H1883.4L1692.63 351.959H3120.2V349.248H1689.63L1498.86 177.043H4295.07V174.331H1495.86L1401.98 89.5844H3120.2V86.8732H1398.98L1305.82 2.78377ZM1301.9 2.78377L1177.94 2.78377L1246.89 86.8732H1395.05L1301.9 2.78377ZM1177.76 2.78377L1027.63 2.78377L1076.45 86.8732H1243.5L1176.26 4.86541L1177.76 2.78377ZM1027.45 2.78377L917.532 2.78377L941.33 86.8732H1073.41L1025.63 4.5652L1027.45 2.78377ZM917.257 2.78377L710.038 2.78377L683.928 86.8732H803.939V2.89975H806.651V86.8732H938.553L915.053 3.83652L917.257 2.78377ZM707.246 2.78377L576.66 2.78377L527.704 86.8732H681.136L707.246 2.78377ZM573.619 2.78377L409.423 2.78378L341.836 86.8732H524.664L573.619 2.78377ZM406.06 2.78378L288.696 2.78378L195.544 86.8732H338.474L406.06 2.78378ZM192.541 89.5844L98.6599 174.331H268.18L336.294 89.5844H192.541ZM-288.876 524.164L-98.1116 351.959H125.413L-12.9961 524.164H-288.876ZM-95.1082 349.248H127.592L266 177.043H95.6565L-95.1082 349.248ZM-9.6333 524.164L128.775 351.959H370.333L270.078 524.164H-9.6333ZM130.955 349.248H371.912L472.168 177.043H269.363L130.955 349.248ZM273.118 524.164L373.374 351.959H598.827L545.357 524.164H273.118ZM374.952 349.248H599.668L653.138 177.043H475.208L374.952 349.248ZM548.149 524.164L601.619 351.959H803.939V524.164H548.149ZM602.46 349.248H803.939V177.043H655.93L602.46 349.248ZM806.651 524.164V351.959H1013.57L1062.31 524.164H806.651ZM806.651 349.248H1012.81L964.071 177.043H806.651V349.248ZM1065.09 524.164L1016.35 351.959H1227.31L1327.29 524.164H1065.09ZM1015.58 349.248H1225.74L1125.76 177.043H966.849L1015.58 349.248ZM1330.33 524.164L1230.35 351.959H1460.84L1602.04 524.164H1330.33ZM1228.78 349.248H1458.62L1317.43 177.043H1128.8L1228.78 349.248ZM1605.43 524.164L1464.23 351.959H1688.71L1879.47 524.164H1605.43ZM1462.01 349.248H1685.7L1494.94 177.043H1320.82L1462.01 349.248ZM339.657 89.5844L271.542 174.331H473.746L523.085 89.5844H339.657ZM526.125 89.5844L476.787 174.331H653.98L680.294 89.5844H526.125ZM683.086 89.5844L656.772 174.331H803.939V89.5844H683.086ZM806.651 89.5844V174.331H963.304L939.32 89.5844H806.651ZM942.098 89.5844L966.082 174.331H1124.19L1074.99 89.5844H942.098ZM1078.02 89.5844L1127.23 174.331H1315.2L1245.72 89.5844H1078.02ZM1249.11 89.5844L1318.59 174.331H1491.93L1398.05 89.5844H1249.11ZM2076.24 701.792L2363.89 961.456H1963.97L1751.07 701.792H2076.24ZM1747.68 701.792L1960.58 961.456H1584.21L1433.45 701.792H1747.68ZM1962.8 964.167H1585.78L1787.31 1311.29H2247.41L1962.8 964.167ZM1430.42 701.792L1581.17 961.456H1188.84L1115.36 701.792H1430.42ZM1582.74 964.167H1189.61L1287.85 1311.29H1784.27L1582.74 964.167ZM1112.58 701.792L1186.07 961.456H806.651V701.792H1112.58ZM1186.83 964.167H806.651V1311.29H1285.07L1186.83 964.167ZM803.939 701.792V961.456H412.37L492.996 701.792H803.939ZM803.939 964.167H411.528L303.747 1311.29H803.939V964.167ZM490.204 701.792L409.578 961.456H18.5322L169.705 701.792H490.204ZM408.736 964.167H16.9539L-185.136 1311.29H303.31L301.284 1310.23L408.736 964.167ZM166.665 701.792L15.4919 961.456H-361.103L-152.4 701.792H166.665ZM13.9136 964.167H-363.282L-642.279 1311.29H-185.451L-187.185 1309.59L13.9136 964.167ZM-155.763 701.792L-364.466 961.456H-773.296L-485.648 701.792H-155.763ZM-366.645 964.167H-776.3L-1160.83 1311.29H-642.582L-644.046 1309.3L-366.645 964.167ZM2366.89 964.167H1966.19L2250.8 1311.29H2751.43L2366.89 964.167ZM-153.584 699.081H-482.644L-291.88 526.876H-15.1753L-153.584 699.081ZM168.243 699.081H-150.221L-11.8125 526.876H268.499L168.243 699.081ZM491.045 699.081H171.284L271.54 526.876H544.515L491.045 699.081ZM803.939 699.081H493.837L547.307 526.876H803.939V699.081ZM1111.81 699.081H806.651V526.876H1063.08L1111.81 699.081ZM1428.84 699.081H1114.59L1065.85 526.876H1328.87L1428.84 699.081ZM1745.45 699.081H1431.88L1331.9 526.876H1604.26L1745.45 699.081ZM2073.24 699.081H1748.84L1607.65 526.876H1882.47L2073.24 699.081Z" fill="#D7CFFF"/>
</mask>
<g mask="url(#mask0_4_14590)">
<path d="M303.223 -14.9412H1286.96L2752.69 1317.68H-1162.51L303.223 -14.9412Z" fill="url(#paint0_linear_4_14590)"/>
</g>
<defs>
<linearGradient id="paint0_linear_4_14590" x1="795.09" y1="-14.9412" x2="795.09" y2="1317.68" gradientUnits="userSpaceOnUse">
<stop stop-color="#D8C5FF" stop-opacity="0"/>
<stop offset="0.24" stop-color="#5C43DD"/>
<stop offset="0.895" stop-color="#D8C5FF" stop-opacity="0"/>
</linearGradient>
</defs>
</svg>
